<?xml version="1.0" encoding="UTF-8" standalone="no"?>
<!-- Created with Inkscape (http://www.inkscape.org/) -->

<svg
   width="3840"
   height="2160"
   viewBox="0 0 1016 571.5"
   version="1.1"
   id="svg1"
   
   
   xmlns="http://www.w3.org/2000/svg">
   
  <namedview
     id="namedview1"
     pagecolor="#ffffff"
     bordercolor="#000000"
     borderopacity="0.25"
     showpageshadow="2"
     pageopacity="0.0"
     pagecheckerboard="0"
     deskcolor="#d1d1d1"
     document-units="mm"
     zoom="0.13447252"
     cx="2219.7844"
     cy="706.46404"
     window-width="1492"
     window-height="784"
     window-x="0"
     window-y="0"
     window-maximized="1"
     current-layer="layer1" />
  <defs
     id="defs1">
    <pattern
       collect="always"
       href="#pattern20-1"
       preserveAspectRatio="xMidYMid"
       id="pattern36"
       patternTransform="matrix(2.5,0,0,2.5,340,140)"
       x="0"
       y="0" />
    <pattern
       patternUnits="userSpaceOnUse"
       width="40"
       height="40"
       patternTransform="translate(340,140)"
       preserveAspectRatio="xMidYMid"
       style="fill:#AF9BB6"
       id="pattern20-1"
       label="Abstract fill 2"
       collect="always"
       isstock="true">
      <path
         id="path18-2"
         style="opacity:0.3;stroke-width:4.8561;stroke-linecap:square;paint-order:stroke markers fill;stop-color:#000000"
         d="M 10,0 C 4.47715,0 0,4.47715 0,10 V 20 H 10 C 15.52285,20 20,15.52285 20,10 20,4.47715 15.52285,0 10,0 Z M 30,20 C 24.47715,20 20,15.52285 20,10 V 0 h 10 c 5.52285,0 10,4.47715 10,10 0,5.52285 -4.47715,10 -10,10 z m -20,0 c 5.52285,0 10,4.47715 10,10 V 40 H 10 C 4.47715,40 0,35.52285 0,30 0,24.47715 4.47715,20 10,20 Z m 20,20 c 5.52285,0 10,-4.47715 10,-10 V 20 H 30 c -5.52285,0 -10,4.47715 -10,10 0,5.52285 4.47715,10 10,10 z" />
    </pattern>
    <linearGradient
       id="swatch24"
       swatch="solid">
      <stop
         style="stop-color:#000000;stop-opacity:1;"
         offset="0"
         id="stop24" />
    </linearGradient>
    <clipPath
       clipPathUnits="userSpaceOnUse"
       id="clipPath5">
      <rect
         style="fill:#000000;stroke:#000000;stroke-width:0;stroke-linejoin:bevel;paint-order:stroke markers fill;stop-color:#000000"
         id="rect5-4"
         width="20"
         height="200"
         x="530"
         y="595" />
    </clipPath>
    <linearGradient
       id="swatch3"
       swatch="solid">
      <stop
         style="stop-color:#000000;stop-opacity:1;"
         offset="0"
         id="stop3" />
    </linearGradient>
    <linearGradient
       id="linearGradient1"
       collect="always">
      <stop
         style="stop-color:#000000;stop-opacity:1;"
         offset="0"
         id="stop1" />
      <stop
         style="stop-color:#000000;stop-opacity:0;"
         offset="1"
         id="stop2" />
    </linearGradient>
    <linearGradient
       collect="always"
       href="#linearGradient1"
       id="linearGradient2" />
  </defs>
  <g
     groupmode="layer"
     id="layer1"
     label="Layer 1"
     style="fill:url(#linearGradient2)">
    <rect
       style="mix-blend-mode:normal;fill:url(#pattern36);fill-opacity:1;stroke-width:0.264583;fill-rule:nonzero"
       id="rect2"
       width="1016"
       height="571.5"
       x="0"
       y="0" />
  </g>
</svg>
